<?xml version="1.0" encoding="UTF-8" standalone="no"?> <svg xmlns="http://www.w3.org/2000/svg" viewBox="0 0 32 32"><title>Businessman</title><g id="Business_Man" data-name="Business Man"><path d="M22.67,8.878a1.989,1.989,0,0,1-.3-.022A11.017,11.017,0,0,1,18,7.208,10.954,10.954,0,0,1,12,9a10.925,10.925,0,0,1-2.978-.427C9.013,8.715,9,8.856,9,9A7,7,0,0,0,23,9c0-.053-.007-.1-.008-.157A2.033,2.033,0,0,1,22.67,8.878Z"/><path d="M12,7a8.955,8.955,0,0,0,6-2.3,8.971,8.971,0,0,0,4.67,2.183A6.994,6.994,0,0,0,9.427,6.613,8.925,8.925,0,0,0,12,7Z"/><path d="M18,17l-1,2,1.677,5.868a2,2,0,0,1-.509,1.964l-1.461,1.461a1,1,0,0,1-1.414,0l-1.461-1.461a2,2,0,0,1-.509-1.964L15,19l-1-2a9,9,0,0,0-9,9v1a3,3,0,0,0,3,3H24a3,3,0,0,0,3-3V26A9,9,0,0,0,18,17Z"/></g></svg>